<?xml version="1.0" encoding="UTF-8" standalone="no"?>
<svg width="16px" height="16px" viewBox="0 0 16 16" version="1.1" xmlns="http://www.w3.org/2000/svg" xmlns:xlink="http://www.w3.org/1999/xlink">
    <!-- Generator: sketchtool 3.7.2 (28276) - http://www.bohemiancoding.com/sketch -->
    <title>icon_edit</title>
    <desc>Created with sketchtool.</desc>
    <defs></defs>
    <g id="状态" stroke="none" stroke-width="1" fill="none" fill-rule="evenodd">
        <g id="账户设置_错误提示" transform="translate(-948.000000, -597.000000)">
            <g id="Group-2" transform="translate(948.000000, 597.000000)">
                <rect id="Rectangle-211" fill-opacity="0" fill="#D8D8D8" x="0" y="0" width="16" height="16"></rect>
                <path d="M13.8018736,3.71403843 L12.2771091,2.19706615 C12.0130046,1.93431128 11.6048197,1.93431128 11.3406512,2.19706615 L10.1400887,3.3915569 L12.6733513,5.91187342 L13.8018736,4.64571066 C14.0660421,4.38289214 14.0660421,3.97685696 13.8018736,3.71403843 L13.8018736,3.71403843 Z M2,11.4183107 L2,13.9386273 L4.53332652,13.9386273 L11.8689243,6.56876057 L9.33566174,4.04846529 L2,11.4183107 L2,11.4183107 Z M7.36097692,12.6678816 C6.99085947,12.6678816 6.69084147,12.9663664 6.69084147,13.3345924 C6.69084147,13.7028184 6.99085947,14.0013032 7.36097692,14.0013032 C7.73109437,14.0013032 8.03111237,13.7028184 8.03111237,13.3345924 C8.03111237,12.9663664 7.73109437,12.6678816 7.36097692,12.6678816 L7.36097692,12.6678816 Z M10.0415187,12.6678816 C9.67140126,12.6678816 9.37138325,12.9663664 9.37138325,13.3345924 C9.37138325,13.7028184 9.67140126,14.0013032 10.0415187,14.0013032 C10.4116362,14.0013032 10.7116542,13.7028184 10.7116542,13.3345924 C10.7116755,12.9663664 10.4116362,12.6678816 10.0415187,12.6678816 L10.0415187,12.6678816 Z M12.7220818,12.6678816 C12.3519644,12.6678816 12.0519464,12.9663664 12.0519464,13.3345924 C12.0519464,13.7028184 12.3519644,14.0013032 12.7220818,14.0013032 C13.0921993,14.0013032 13.3922173,13.7028184 13.3922173,13.3345924 C13.3922173,12.9663664 13.0921993,12.6678816 12.7220818,12.6678816 L12.7220818,12.6678816 Z" id="Shape-Copy-6" fill="#007FFF"></path>
            </g>
        </g>
    </g>
</svg>